# xmcd
#
# Track frame offsets:
# 150
# 53898
# 88644
# 125152
# 159526
# 184689
# 217212
# 252253
# 277318
# 298921
#
# Disc length: 4557 seconds
#
# Revision: 0
# Processed by: cddbd v1.5.2PL0 Copyright (c) Steve Scherf et al.
# Submitted via: Audion 3.0.2 (http://www.panic.com/audion/)
#
DISCID=a611cb0a
DTITLE=Widespread Panic - New Year's Vacation Shows(live) [Dec 30th and 31st, 2003] Disc 5
DYEAR=1900
DGENRE=
TTITLE0=Chilly Waters
TTITLE1=Bowlegged Woman
TTITLE2=Stop-Go
TTITLE3=Sleep Monkey
TTITLE4=Disco
TTITLE5=Jack
TTITLE6=Coconut
TTITLE7=Imitation Leather Shoes
TTITLE8=Ain't Life Grand
TTITLE9=Bust it Big
EXTD=
EXTT0=
EXTT1=
EXTT2=
EXTT3=
EXTT4=
EXTT5=
EXTT6=
EXTT7=
EXTT8=
EXTT9=
PLAYORDER=
